<?xml version="1.0" encoding="UTF-8"?>
<svg width="32px" height="32px" viewBox="0 0 32 32" version="1.1" xmlns="http://www.w3.org/2000/svg" xmlns:xlink="http://www.w3.org/1999/xlink">
    <g id="Artboard" stroke="none" stroke-width="1" fill="none" fill-rule="evenodd">
        <g id="Group-2" transform="translate(-0.500000, 0.000000)">
            <rect id="Rectangle" fill="#ED553B" x="0.5" y="0" width="32" height="32" rx="2"></rect>
            <path d="M7.17756539,13.9297913 C7.44751844,13.9297913 7.68694109,13.8902593 7.89583333,13.8111954 C8.10472558,13.7321316 8.28148055,13.6230234 8.42609826,13.483871 C8.57071596,13.3447185 8.67998267,13.1818469 8.75389839,12.9952562 C8.82781411,12.8086654 8.86477197,12.6046806 8.86477197,12.3833017 C8.86477197,12.1619228 8.82781411,11.9531942 8.75389839,11.7571157 C8.67998267,11.5610373 8.57071596,11.3918406 8.42609826,11.2495256 C8.28148055,11.1072106 8.10472558,10.9949399 7.89583333,10.9127135 C7.68694109,10.830487 7.44751844,10.7893738 7.17756539,10.7893738 C6.90761234,10.7893738 6.66818969,10.830487 6.45929745,10.9127135 C6.25040521,10.9949399 6.0752571,11.1072106 5.93385312,11.2495256 C5.79244914,11.3918406 5.68478929,11.5610373 5.61087357,11.7571157 C5.53695786,11.9531942 5.5,12.1619228 5.5,12.3833017 C5.5,12.6046806 5.53695786,12.8086654 5.61087357,12.9952562 C5.68478929,13.1818469 5.79244914,13.3447185 5.93385312,13.483871 C6.0752571,13.6230234 6.25040521,13.7321316 6.45929745,13.8111954 C6.66818969,13.8902593 6.90761234,13.9297913 7.17756539,13.9297913 Z M7.17756539,22.0037951 C7.44751844,22.0037951 7.68694109,21.9642631 7.89583333,21.8851992 C8.10472558,21.8061354 8.28148055,21.6970272 8.42609826,21.5578748 C8.57071596,21.4187223 8.67998267,21.2558507 8.75389839,21.06926 C8.82781411,20.8826692 8.86477197,20.6786844 8.86477197,20.4573055 C8.86477197,20.2359266 8.82781411,20.027198 8.75389839,19.8311195 C8.67998267,19.6350411 8.57071596,19.4658444 8.42609826,19.3235294 C8.28148055,19.1812144 8.10472558,19.0689437 7.89583333,18.9867173 C7.68694109,18.9044908 7.44751844,18.8633776 7.17756539,18.8633776 C6.90761234,18.8633776 6.66818969,18.9044908 6.45929745,18.9867173 C6.25040521,19.0689437 6.0752571,19.1812144 5.93385312,19.3235294 C5.79244914,19.4658444 5.68478929,19.6350411 5.61087357,19.8311195 C5.53695786,20.027198 5.5,20.2359266 5.5,20.4573055 C5.5,20.6786844 5.53695786,20.8826692 5.61087357,21.06926 C5.68478929,21.2558507 5.79244914,21.4187223 5.93385312,21.5578748 C6.0752571,21.6970272 6.25040521,21.8061354 6.45929745,21.8851992 C6.66818969,21.9642631 6.90761234,22.0037951 7.17756539,22.0037951 Z M14.05944,23 L19.6127599,8 L17.5109826,8 L11.9576626,23 L14.05944,23 Z M22.9466801,23 L28.5,8 L26.3982227,8 L20.8449027,23 L22.9466801,23 Z" id="://" fill="#FFFFFF" fill-rule="nonzero"></path>
        </g>
    </g>
</svg>